<?xml version="1.0" standalone="no"?>
<!DOCTYPE svg PUBLIC "-//W3C//DTD SVG 20010904//EN"
 "http://www.w3.org/TR/2001/REC-SVG-20010904/DTD/svg10.dtd">
<svg version="1.0" xmlns="http://www.w3.org/2000/svg"
 width="2363.000000pt" height="2363.000000pt" viewBox="0 0 2363.000000 2363.000000"
 preserveAspectRatio="xMidYMid meet">

<g transform="translate(0.000000,2363.000000) scale(0.100000,-0.100000)"
fill="#003768" stroke="none">
<path d="M0 11815 l0 -11815 11815 0 11815 0 0 11815 0 11815 -11815 0 -11815
0 0 -11815z m3804 -2064 c355 -73 579 -237 695 -509 28 -67 61 -212 61 -274
l0 -48 -340 0 -340 0 -5 28 c-28 137 -77 203 -181 242 -169 63 -432 41 -522
-43 -62 -58 -76 -167 -32 -247 49 -87 144 -123 460 -175 575 -95 843 -225 974
-475 95 -179 110 -438 40 -650 -102 -302 -394 -494 -839 -551 -143 -18 -446
-16 -576 5 -285 44 -473 131 -634 291 -73 72 -100 108 -137 180 -52 100 -84
205 -93 298 -3 34 -8 77 -11 95 l-5 32 354 0 354 0 6 -53 c16 -132 82 -225
188 -265 122 -45 386 -55 505 -18 114 35 174 110 174 216 0 158 -85 206 -483
270 -298 48 -402 74 -552 137 -199 84 -370 242 -440 409 -54 129 -72 358 -39
507 35 162 144 326 278 421 153 109 306 162 571 200 17 2 129 3 250 1 171 -3
242 -8 319 -24z m2628 0 c486 -105 817 -409 933 -858 14 -52 25 -106 25 -119
l0 -24 -368 0 -368 0 -19 57 c-55 162 -191 283 -368 330 -82 22 -242 22 -324
0 -203 -53 -338 -211 -395 -458 -26 -116 -31 -380 -9 -498 48 -265 167 -423
368 -493 91 -31 297 -33 383 -4 94 32 152 66 216 127 69 67 107 131 140 233
l22 71 366 3 c262 2 366 -1 366 -9 0 -33 -44 -219 -66 -281 -59 -164 -135
-287 -253 -411 -294 -310 -742 -440 -1246 -362 -560 87 -944 470 -1053 1050
-23 126 -23 484 0 610 103 546 435 909 939 1024 149 35 211 40 419 36 150 -2
217 -8 292 -24z m1898 -511 l0 -480 455 0 455 0 0 480 0 480 370 0 370 0 0
-1315 0 -1315 -370 0 -370 0 0 510 0 510 -455 0 -455 0 0 -510 0 -510 -370 0
-370 0 0 1315 0 1315 370 0 370 0 0 -480z m2610 472 c0 -4 65 -300 145 -657
80 -358 166 -753 191 -880 26 -126 48 -232 50 -234 10 -11 18 25 69 310 30
167 108 566 172 887 l118 582 362 0 363 0 5 -22 c42 -178 234 -1152 300 -1523
44 -246 46 -257 51 -252 2 2 29 125 59 273 58 289 330 1513 337 1520 3 2 176
3 384 2 l379 -3 -337 -1250 c-185 -687 -344 -1278 -353 -1312 l-17 -63 -412 0
-412 0 -58 278 c-119 570 -205 1003 -241 1212 -20 118 -38 217 -41 219 -10 10
-16 -17 -55 -235 -38 -217 -124 -647 -242 -1214 l-54 -255 -411 -3 -411 -2
-15 52 c-9 29 -167 613 -351 1298 -185 685 -338 1253 -341 1263 -5 16 18 17
380 17 212 0 386 -3 386 -8z m4474 -235 c80 -220 862 -2345 873 -2374 4 -10
-77 -13 -384 -13 l-390 0 -54 173 -55 172 -520 3 -520 2 -55 -172 -55 -173
-372 -3 c-231 -1 -372 1 -372 7 0 8 883 2501 919 2594 l11 27 442 0 443 0 89
-243z m2566 228 c314 -48 540 -184 669 -402 106 -180 135 -434 76 -661 -35
-135 -105 -252 -215 -355 -65 -62 -209 -157 -237 -157 -7 0 -13 -4 -13 -10 0
-7 535 -927 586 -1008 l15 -22 -411 2 -411 3 -251 443 -251 442 -159 0 -158 0
0 -445 0 -445 -365 0 -365 0 0 1315 0 1315 698 0 c561 0 716 -3 792 -15z
m3260 -264 l0 -278 -466 -524 c-257 -288 -543 -607 -637 -709 l-171 -185 647
-3 647 -2 0 -325 0 -325 -1130 0 -1130 0 0 283 1 282 375 420 c511 571 663
740 788 875 58 63 106 118 106 121 0 4 -277 4 -615 1 l-615 -5 0 327 0 326
1100 0 1100 0 0 -279z m20 -3531 l0 -140 -9445 0 -9445 0 0 140 0 140 9445 0
9445 0 0 -140z m-13904 -1485 c237 -38 422 -133 580 -296 143 -148 222 -312
260 -539 22 -136 15 -376 -15 -497 -77 -311 -263 -543 -535 -669 -290 -133
-670 -139 -972 -13 -154 64 -321 199 -413 332 -118 172 -181 394 -181 642 0
297 92 548 269 737 150 160 347 264 573 302 111 19 322 19 434 1z m11114 -10
c96 -21 235 -76 325 -129 83 -49 244 -205 300 -291 164 -251 211 -642 118
-965 -141 -490 -615 -769 -1188 -699 -376 46 -683 273 -814 601 -62 155 -75
233 -75 448 0 168 3 207 22 283 49 197 121 335 241 460 157 164 341 261 578
302 104 19 390 13 493 -10z m-14929 -38 c323 -78 511 -277 549 -584 39 -306
-92 -584 -335 -710 -154 -80 -296 -103 -637 -103 l-188 0 0 -305 0 -305 -280
0 -280 0 0 1016 0 1016 553 -5 c458 -4 563 -7 618 -20z m1904 0 c338 -76 524
-269 550 -572 23 -262 -99 -496 -318 -611 l-68 -35 20 -32 c29 -48 416 -709
430 -735 l12 -22 -314 0 -314 0 -192 340 -193 340 -124 0 -124 0 0 -340 0
-340 -285 0 -285 0 0 1016 0 1016 568 -5 c466 -4 579 -7 637 -20z m4087 -1
c437 -84 689 -337 764 -767 25 -145 15 -420 -20 -554 -31 -119 -107 -278 -170
-355 -121 -146 -297 -250 -514 -302 -82 -20 -119 -22 -654 -25 l-568 -4 0
1016 0 1017 538 -5 c448 -3 551 -7 624 -21z m1510 -653 c4 -754 1 -726 72
-810 125 -146 425 -147 549 -2 74 86 71 55 75 812 l3 677 279 0 280 0 0 -687
c0 -792 -1 -801 -84 -968 -155 -313 -532 -470 -991 -414 -347 43 -605 231
-699 509 -44 132 -46 171 -46 883 l0 677 280 0 279 0 3 -677z m1988 277 c0
-220 4 -400 8 -400 4 0 174 180 376 400 l369 400 341 0 340 0 -54 -57 c-30
-32 -112 -116 -181 -188 -309 -319 -554 -577 -557 -585 -2 -4 159 -251 356
-548 198 -297 376 -565 396 -596 l36 -56 -333 0 -332 0 -259 400 c-142 221
-263 403 -267 406 -5 3 -60 -48 -123 -113 l-115 -118 -1 -287 0 -288 -280 0
-280 0 0 1015 0 1015 280 0 280 0 0 -400z m3210 145 l0 -255 -300 0 -300 0 0
-760 0 -760 -280 0 -280 0 0 760 0 760 -302 2 -303 3 -3 253 -2 252 885 0 885
0 0 -255z m730 -760 l0 -1015 -285 0 -285 0 0 1015 0 1015 285 0 285 0 0
-1015z m3218 735 c262 -438 400 -676 469 -807 36 -68 68 -125 72 -127 3 -3 5
270 3 605 l-4 609 266 0 266 0 0 -1015 0 -1015 -299 0 -299 0 -275 463 c-151
254 -309 525 -351 601 -42 77 -78 142 -80 144 -3 2 -2 -269 1 -602 l6 -606
-271 0 -272 0 0 1015 0 1015 302 -2 302 -3 164 -275z"/>
<path d="M14832 8912 c-24 -81 -94 -307 -156 -502 l-113 -355 310 -3 c171 -1
312 0 315 3 3 2 -56 195 -131 427 -75 233 -145 456 -156 497 -11 41 -22 75
-23 77 -2 1 -23 -64 -46 -144z"/>
<path d="M17225 9138 c-3 -7 -4 -144 -3 -303 l3 -290 280 0 280 0 63 29 c112
52 172 147 172 271 0 124 -60 219 -172 271 l-63 29 -277 3 c-226 3 -279 1
-283 -10z"/>
<path d="M7041 3940 c-126 -27 -242 -117 -299 -232 -51 -106 -66 -177 -66
-328 0 -211 40 -326 154 -441 49 -50 79 -71 125 -88 188 -71 374 -40 504 84
99 94 147 217 158 400 16 292 -95 506 -306 586 -64 24 -200 34 -270 19z"/>
<path d="M18073 3935 c-170 -46 -279 -163 -330 -355 -24 -90 -24 -310 0 -398
82 -304 348 -442 642 -331 45 17 76 38 126 88 112 113 153 229 153 441 0 202
-45 337 -146 440 -109 110 -289 157 -445 115z"/>
<path d="M2940 3690 l0 -232 208 3 c204 4 208 4 265 32 81 40 112 94 112 197
0 104 -27 153 -109 195 l-60 30 -208 3 -208 4 0 -232z"/>
<path d="M4818 3724 c-2 -124 -1 -228 1 -230 2 -2 102 -4 222 -4 l217 0 53 28
c131 68 160 247 58 357 -62 68 -96 75 -340 75 l-208 0 -3 -226z"/>
<path d="M8950 3379 l0 -542 203 6 c225 6 293 20 380 78 121 80 173 199 184
414 13 283 -63 453 -240 535 -84 39 -161 50 -359 50 l-168 0 0 -541z"/>
</g>
</svg>
